<svg width="135" height="32" viewBox="0 0 135 32" fill="none" xmlns="http://www.w3.org/2000/svg">
<path fill-rule="evenodd" clip-rule="evenodd" d="M47.9757 14.3921V4.52575C47.9757 4.3505 47.8279 4.20142 47.6534 4.20142H45.5985C45.4105 4.20142 45.2233 4.32354 45.1285 4.4853L42.3626 9.98385C42.3081 10.0925 42.1738 10.0925 42.1209 9.98385L39.3677 4.4853C39.2737 4.32354 39.0857 4.20142 38.8977 4.20142H36.8428C36.6682 4.20142 36.5205 4.3505 36.5205 4.52575V14.3921C36.5205 14.5681 36.6682 14.7156 36.8428 14.7156H38.8708C39.0454 14.7156 39.1931 14.5681 39.1931 14.3921V9.59371C39.1931 9.5263 39.2871 9.49934 39.314 9.56674L41.2211 13.4088C41.3143 13.5697 41.5031 13.6911 41.6911 13.6911H42.805C42.9931 13.6911 43.1819 13.5697 43.2759 13.4088L45.1822 9.56674C45.2091 9.49934 45.3031 9.5263 45.3031 9.59371V14.3921C45.3031 14.5681 45.4516 14.7156 45.6254 14.7156H47.6534C47.8279 14.7156 47.9757 14.5681 47.9757 14.3921Z" fill="white"/>
<path fill-rule="evenodd" clip-rule="evenodd" d="M49.9102 14.7158H57.3095C57.4841 14.7158 57.6318 14.5675 57.6318 14.3923V12.4376C57.6318 12.2623 57.4841 12.1148 57.3095 12.1148H52.5425C52.3948 12.1148 52.2739 11.9927 52.2739 11.8444V11.0356C52.2739 10.8881 52.3948 10.7668 52.5425 10.7668H56.3559C56.5305 10.7668 56.6782 10.6177 56.6782 10.4424V8.6503C56.6782 8.47505 56.5305 8.32597 56.3559 8.32597H52.5425C52.3948 8.32597 52.2739 8.20544 52.2739 8.05715V7.08654C52.2739 6.93825 52.3948 6.81692 52.5425 6.81692H57.3095C57.4841 6.81692 57.6318 6.66863 57.6318 6.49338V4.5252C57.6318 4.35074 57.4841 4.20166 57.3095 4.20166H49.9102C49.7356 4.20166 49.5879 4.35074 49.5879 4.5252V14.3923C49.5879 14.5675 49.7356 14.7158 49.9102 14.7158Z" fill="white"/>
<path fill-rule="evenodd" clip-rule="evenodd" d="M63.595 12.1146H61.8902C61.7416 12.1146 61.6216 11.9932 61.6216 11.8442V7.08625C61.6216 6.93875 61.7416 6.81663 61.8902 6.81663H63.595C65.1932 6.81663 66.0393 7.88161 66.0393 9.45886C66.0393 11.0361 65.1932 12.1146 63.595 12.1146ZM63.7965 4.20142H59.2579C59.0833 4.20142 58.9355 4.3505 58.9355 4.52575V14.3921C58.9355 14.5681 59.0833 14.7156 59.2579 14.7156H63.7965C67.0735 14.7156 68.7514 12.3295 68.7514 9.4589C68.7514 6.60099 67.0735 4.20142 63.7965 4.20142Z" fill="white"/>
<path fill-rule="evenodd" clip-rule="evenodd" d="M70.2432 14.7158H72.2846C72.4592 14.7158 72.6069 14.5675 72.6069 14.3923V4.5252C72.6069 4.35074 72.4592 4.20166 72.2846 4.20166H70.2432C70.0686 4.20166 69.9209 4.35074 69.9209 4.5252V14.3923C69.9209 14.5675 70.0686 14.7158 70.2432 14.7158Z" fill="white"/>
<path fill-rule="evenodd" clip-rule="evenodd" d="M84.089 12.182C84.183 12.0472 84.1159 11.8315 83.9681 11.7768L82.1013 10.9553C81.9275 10.8744 81.7387 10.9283 81.6321 11.1035C81.1209 11.8315 80.2756 12.3168 79.2818 12.3168C77.7104 12.3168 76.4346 11.0496 76.4346 9.4589C76.4346 7.86897 77.7104 6.60099 79.2818 6.60099C80.2614 6.60099 81.1209 7.08629 81.6321 7.81425C81.7387 7.9895 81.9275 8.04343 82.1013 7.94906L83.9547 7.12674C84.1024 7.05933 84.1562 6.84443 84.0756 6.70963C83.1086 5.09194 81.3224 4 79.2818 4C76.26 4 73.7217 6.4527 73.7217 9.4589C73.7217 12.4643 76.26 14.9178 79.2818 14.9178C81.3224 14.9178 83.1355 13.8259 84.089 12.182Z" fill="white"/>
<path fill-rule="evenodd" clip-rule="evenodd" d="M87.5546 14.7158C87.7292 14.7158 87.877 14.5675 87.877 14.3923V4.5252C87.877 4.35074 87.7292 4.20166 87.5546 4.20166H85.5132C85.3387 4.20166 85.1909 4.35074 85.1909 4.5252V14.3923C85.1909 14.5675 85.3387 14.7158 85.5132 14.7158H87.5546Z" fill="white"/>
<path fill-rule="evenodd" clip-rule="evenodd" d="M93.585 14.7158H100.635C100.81 14.7158 100.957 14.5675 100.957 14.3923V12.4376C100.957 12.2623 100.81 12.1148 100.635 12.1148H96.2031C96.0562 12.1148 95.9353 11.9927 95.9353 11.8444V4.5252C95.9353 4.35074 95.7876 4.20166 95.6122 4.20166H93.585C93.4104 4.20166 93.2627 4.35074 93.2627 4.5252V14.3923C93.2627 14.5675 93.4104 14.7158 93.585 14.7158Z" fill="white"/>
<path fill-rule="evenodd" clip-rule="evenodd" d="M105.645 10.4831L106.612 7.9091C106.638 7.81473 106.773 7.81473 106.799 7.9091L107.752 10.4831C107.793 10.6045 107.712 10.7393 107.578 10.7393H105.819C105.685 10.7393 105.604 10.6045 105.645 10.4831ZM101.454 14.7161H103.738C103.926 14.7161 104.1 14.5948 104.167 14.4195L104.543 13.4354C104.597 13.2871 104.744 13.1793 104.905 13.1793H108.492C108.652 13.1793 108.8 13.2871 108.854 13.4354L109.23 14.4195C109.297 14.5948 109.471 14.7161 109.659 14.7161H111.943C112.104 14.7161 112.198 14.5543 112.144 14.4195L108.155 4.49848C108.088 4.32323 107.9 4.2019 107.712 4.2019H105.698C105.51 4.2019 105.322 4.32323 105.255 4.49848L101.253 14.4195C101.199 14.5543 101.293 14.7161 101.454 14.7161Z" fill="white"/>
<path fill-rule="evenodd" clip-rule="evenodd" d="M120.739 14.7158H122.365C122.539 14.7158 122.687 14.5675 122.687 14.3923V4.5252C122.687 4.35074 122.539 4.20166 122.365 4.20166H120.336C120.162 4.20166 120.014 4.35074 120.014 4.5252V9.80964C120.014 9.90401 119.906 9.94366 119.854 9.86356L115.542 4.45779C115.422 4.29603 115.22 4.20166 115.019 4.20166H113.394C113.219 4.20166 113.071 4.35074 113.071 4.5252V14.3923C113.071 14.5675 113.219 14.7158 113.394 14.7158H115.422C115.596 14.7158 115.744 14.5675 115.744 14.3923V9.12133C115.744 9.02776 115.851 8.98652 115.905 9.0682L120.215 14.4597C120.336 14.6215 120.538 14.7158 120.739 14.7158Z" fill="white"/>
<path fill-rule="evenodd" clip-rule="evenodd" d="M126.986 7.08649C126.986 6.93821 127.106 6.81688 127.254 6.81688H128.959C130.557 6.81688 131.404 7.88186 131.404 9.4591C131.404 11.0356 130.557 12.1148 128.959 12.1148H127.254C127.106 12.1148 126.986 11.9927 126.986 11.8444V7.08649ZM124.622 14.7158H129.161C132.438 14.7158 134.116 12.3297 134.116 9.45914C134.116 6.60123 132.438 4.20166 129.161 4.20166H124.622C124.448 4.20166 124.3 4.35074 124.3 4.52599V14.3923C124.3 14.5683 124.448 14.7158 124.622 14.7158Z" fill="white"/>
<path fill-rule="evenodd" clip-rule="evenodd" d="M45.2289 22.1477H41.1604C40.9992 22.1477 40.8625 22.2849 40.8625 22.4467V23.9161C40.8625 24.0787 40.9992 24.2143 41.1604 24.2143H43.0825C43.1449 24.2143 43.2065 24.2777 43.2065 24.3396V24.3768C43.2065 24.4395 43.1701 24.5386 43.133 24.5885C42.674 25.1991 41.9535 25.5972 41.1351 25.5972C39.672 25.5972 38.5059 24.4268 38.5059 22.9574C38.5059 21.488 39.672 20.3175 41.1351 20.3175C41.8674 20.3175 42.5373 20.6165 43.0082 21.0899C43.1449 21.2271 43.3187 21.239 43.468 21.1399L44.9927 20.1066C45.1167 20.0186 45.142 19.8322 45.0433 19.7077C44.1 18.6245 42.6859 17.9148 41.1351 17.9148C38.3321 17.9148 36 20.1811 36 22.9574C36 25.7336 38.3321 28 41.1351 28C42.0286 28 42.9213 27.6883 43.4308 27.1039C43.4798 27.0412 43.5794 27.0785 43.5794 27.1531V27.5147C43.5794 27.6764 43.7153 27.8136 43.8764 27.8136H45.2289C45.3901 27.8136 45.5267 27.6764 45.5267 27.5147V22.4467C45.5267 22.2849 45.3901 22.1477 45.2289 22.1477Z" fill="white"/>
<path fill-rule="evenodd" clip-rule="evenodd" d="M51.4548 25.597C50.0035 25.597 48.8256 24.4265 48.8256 22.9579C48.8256 21.4877 50.0035 20.3181 51.4548 20.3181C52.944 20.3181 54.0847 21.4877 54.0847 22.9579C54.0847 24.4265 52.944 25.597 51.4548 25.597ZM51.4549 17.9146C48.6646 17.9146 46.3198 20.1809 46.3198 22.9579C46.3198 25.7342 48.6646 27.9997 51.4549 27.9997C54.2831 27.9997 56.59 25.7342 56.59 22.9579C56.59 20.1809 54.2831 17.9146 51.4549 17.9146Z" fill="white"/>
<path fill-rule="evenodd" clip-rule="evenodd" d="M66.24 18.1016H64.1315C63.9577 18.1016 63.7957 18.2142 63.7341 18.3759L61.477 24.3899C61.4517 24.4764 61.3277 24.4764 61.3032 24.3899L59.058 18.3759C58.9956 18.2142 58.8344 18.1016 58.6606 18.1016H56.5521C56.4036 18.1016 56.3159 18.2506 56.3664 18.3759L60.0503 27.5389C60.1119 27.7006 60.2857 27.8132 60.4595 27.8132H62.32C62.4938 27.8132 62.6676 27.7006 62.73 27.5389L66.4256 18.3759C66.4754 18.2506 66.3885 18.1016 66.24 18.1016Z" fill="white"/>
<path fill-rule="evenodd" clip-rule="evenodd" d="M74.414 18.1016H67.5796C67.4184 18.1016 67.2817 18.2387 67.2817 18.4005V27.5143C67.2817 27.6761 67.4184 27.8132 67.5796 27.8132H74.414C74.5751 27.8132 74.711 27.6761 74.711 27.5143V25.7095C74.711 25.5477 74.5751 25.4105 74.414 25.4105H70.0104C69.8738 25.4105 69.7616 25.2979 69.7616 25.1607V24.4145C69.7616 24.2773 69.8738 24.1647 70.0104 24.1647H73.5331C73.6943 24.1647 73.8309 24.0283 73.8309 23.8666V22.2108C73.8309 22.049 73.6943 21.9119 73.5331 21.9119H70.0104C69.8738 21.9119 69.7616 21.7992 69.7616 21.6621V20.766C69.7616 20.6296 69.8738 20.517 70.0104 20.517H74.414C74.5751 20.517 74.711 20.3798 74.711 20.218V18.4005C74.711 18.2387 74.5751 18.1016 74.414 18.1016Z" fill="white"/>
<path fill-rule="evenodd" clip-rule="evenodd" d="M80.503 22.9578H78.6299C78.4932 22.9578 78.381 22.8452 78.381 22.7088V20.6169C78.381 20.4797 78.4932 20.3671 78.6299 20.3671H80.503C81.4952 20.3671 81.8673 20.9277 81.8673 21.6747C81.8673 22.3472 81.4952 22.9578 80.503 22.9578ZM82.4994 25.087C82.4259 24.9744 82.4504 24.8245 82.5745 24.7626C83.7279 24.1282 84.2611 22.9324 84.2611 21.6502C84.2611 19.72 83.1204 18.1016 80.6389 18.1016H76.2109C76.0498 18.1016 75.9131 18.2387 75.9131 18.4005V27.5143C75.9131 27.6761 76.0498 27.8132 76.2109 27.8132H78.0832C78.2452 27.8132 78.3811 27.6761 78.3811 27.5143V25.4597C78.3811 25.3225 78.4933 25.2115 78.6299 25.2115H79.3994C79.5479 25.2115 79.7091 25.286 79.7952 25.4105L81.3097 27.5642C81.4203 27.7133 81.5941 27.8132 81.7805 27.8132H84.1497C84.273 27.8132 84.348 27.6761 84.273 27.5642L82.4994 25.087Z" fill="white"/>
<path fill-rule="evenodd" clip-rule="evenodd" d="M93.9985 18.1016H92.1254C91.9642 18.1016 91.8276 18.2387 91.8276 18.4005V23.2813C91.8276 23.3686 91.728 23.405 91.6782 23.3313L87.6966 18.3387C87.5852 18.1888 87.3988 18.1016 87.2131 18.1016H85.7129C85.5517 18.1016 85.415 18.2387 85.415 18.4005V27.5143C85.415 27.6761 85.5517 27.8132 85.7129 27.8132H87.5852C87.7464 27.8132 87.883 27.6761 87.883 27.5143V22.6462C87.883 22.5589 87.9826 22.5217 88.0316 22.5962L92.0132 27.5769C92.1254 27.726 92.311 27.8132 92.4975 27.8132H93.9985C94.1597 27.8132 94.2963 27.6761 94.2963 27.5143V18.4005C94.2963 18.2387 94.1597 18.1016 93.9985 18.1016Z" fill="white"/>
<path fill-rule="evenodd" clip-rule="evenodd" d="M100.992 24.1404H99.3674C99.2434 24.1404 99.1691 24.0159 99.2063 23.9033L100.1 21.5259C100.124 21.4387 100.249 21.4387 100.274 21.5259L101.154 23.9033C101.192 24.0159 101.117 24.1404 100.992 24.1404ZM101.526 18.3754C101.464 18.2136 101.29 18.1018 101.116 18.1018H99.2568C99.0822 18.1018 98.9084 18.2136 98.8468 18.3754L95.1503 27.5391C95.1005 27.6636 95.1874 27.8135 95.3368 27.8135H97.4453C97.6183 27.8135 97.7803 27.7009 97.8427 27.5391L98.1895 26.6311C98.2393 26.494 98.3751 26.394 98.5244 26.394H101.836C101.985 26.394 102.122 26.494 102.171 26.6311L102.519 27.5391C102.58 27.7009 102.742 27.8135 102.916 27.8135H105.025C105.173 27.8135 105.259 27.6636 105.21 27.5391L101.526 18.3754Z" fill="white"/>
<path fill-rule="evenodd" clip-rule="evenodd" d="M114.649 18.1016H112.776C112.615 18.1016 112.478 18.2387 112.478 18.4005V23.2813C112.478 23.3686 112.378 23.405 112.329 23.3313L108.347 18.3387C108.236 18.1888 108.049 18.1016 107.863 18.1016H106.363C106.202 18.1016 106.065 18.2387 106.065 18.4005V27.5143C106.065 27.6761 106.202 27.8132 106.363 27.8132H108.236C108.397 27.8132 108.533 27.6761 108.533 27.5143V22.6462C108.533 22.5589 108.633 22.5217 108.682 22.5962L112.664 27.5769C112.776 27.726 112.961 27.8132 113.148 27.8132H114.649C114.81 27.8132 114.947 27.6761 114.947 27.5143V18.4005C114.947 18.2387 114.81 18.1016 114.649 18.1016Z" fill="white"/>
<path fill-rule="evenodd" clip-rule="evenodd" d="M125.44 25.099L123.716 24.3393C123.555 24.2648 123.381 24.3147 123.283 24.4765C122.811 25.1482 122.03 25.597 121.112 25.597C119.66 25.597 118.482 24.4265 118.482 22.9579C118.482 21.4877 119.66 20.3181 121.112 20.3181C122.017 20.3181 122.811 20.7661 123.283 21.4386C123.381 21.6003 123.555 21.6495 123.716 21.5631L125.427 20.8034C125.564 20.7415 125.615 20.5417 125.54 20.418C124.646 18.9232 122.997 17.9146 121.112 17.9146C118.321 17.9146 115.977 20.1809 115.977 22.9579C115.977 25.7342 118.321 27.9997 121.112 27.9997C122.997 27.9997 124.671 26.9918 125.552 25.4725C125.639 25.348 125.577 25.1482 125.44 25.099Z" fill="white"/>
<path fill-rule="evenodd" clip-rule="evenodd" d="M133.7 18.1016H126.866C126.705 18.1016 126.568 18.2387 126.568 18.4005V27.5143C126.568 27.6761 126.705 27.8132 126.866 27.8132H133.7C133.861 27.8132 133.997 27.6761 133.997 27.5143V25.7095C133.997 25.5477 133.861 25.4105 133.7 25.4105H129.297C129.16 25.4105 129.048 25.2979 129.048 25.1607V24.4145C129.048 24.2773 129.16 24.1647 129.297 24.1647H132.819C132.98 24.1647 133.117 24.0283 133.117 23.8666V22.2108C133.117 22.049 132.98 21.9119 132.819 21.9119H129.297C129.16 21.9119 129.048 21.7992 129.048 21.6621V20.766C129.048 20.6296 129.16 20.517 129.297 20.517H133.7C133.861 20.517 133.997 20.3798 133.997 20.218V18.4005C133.997 18.2387 133.861 18.1016 133.7 18.1016Z" fill="white"/>
<path fill-rule="evenodd" clip-rule="evenodd" d="M19.6131 29.8625C20.0136 29.5282 20.4265 29.1489 20.8393 28.7155C21.9211 27.5801 23.1078 25.9545 24.0068 23.7343C26.1131 23.4279 27.6244 23.0237 28.6865 22.6417C26.8319 26.1696 23.5508 28.8354 19.6131 29.8625ZM3.3172 22.6469C4.33197 23.0114 5.75512 23.3944 7.71096 23.6941C8.86458 26.5367 10.5368 28.4791 12.0466 29.7657C8.26301 28.6768 5.11818 26.0699 3.3172 22.6469ZM16.0004 1.67519C23.5256 1.67519 29.7095 7.50965 30.278 14.8916H27.9603L20.0141 6.9453L15.9531 11.007L11.8918 6.9453L3.94558 14.8916H1.72246C2.29052 7.50965 8.47484 1.67519 16.0004 1.67519ZM16.8379 22.558V16.5668H23.7556C23.6849 18.7564 23.3346 20.6214 22.8097 22.1987C21.1848 22.3949 19.2129 22.5323 16.8379 22.558ZM16.8379 29.7847V24.2331C18.8537 24.2119 20.5951 24.1136 22.0979 23.9647C20.5374 27.2514 18.2495 28.9798 16.8379 29.7847ZM15.1628 24.2331V29.922C13.8 29.179 11.3137 27.4256 9.64744 23.9413C11.2068 24.1036 13.0335 24.2112 15.1628 24.2331ZM7.97451 16.5668H15.1628V22.558C12.6579 22.5311 10.6038 22.3785 8.92712 22.1637C8.39963 20.592 8.04636 18.7385 7.97451 16.5668ZM17.4685 14.8916H6.31422L11.8918 9.31435L17.4685 14.8916ZM19.8376 14.8916L17.1372 12.1912L20.0141 9.31435L25.5916 14.8916H19.8376ZM1.69008 16.5668H6.30012C6.36191 18.5733 6.64855 20.337 7.09005 21.8801C4.1615 21.341 2.80239 20.6367 2.35605 20.359C1.97039 19.1555 1.74145 17.8838 1.69008 16.5668ZM29.6466 20.3534C29.2167 20.627 27.8021 21.3824 24.6249 21.934C25.0693 20.3888 25.3657 18.6075 25.4289 16.5668H30.3107C30.2594 17.8816 30.0308 19.1521 29.6466 20.3534ZM16.0004 0C7.17787 0 0 7.17758 0 16.0002C0 24.8224 7.17787 32 16.0004 32C24.8225 32 32 24.8224 32 16.0002C32 7.17758 24.8225 0 16.0004 0Z" fill="white"/>
</svg>
